<svg width="331" height="97" viewBox="0 0 331 97" fill="none" xmlns="http://www.w3.org/2000/svg">
<path d="M135.106 25.7996C126.172 23.6504 118.482 21.8408 118.482 13.8123C118.482 7.93073 125.042 3.2948 133.071 3.2948C142.797 3.2948 147.886 8.94756 147.999 9.06078C148.452 9.62702 149.356 9.74025 150.035 9.174C150.601 8.61014 150.715 7.70422 150.148 7.14035C149.922 6.80061 144.154 0.352783 133.071 0.352783C123.459 0.352783 115.542 6.34766 115.542 13.8123C115.542 24.2165 125.606 26.4791 134.429 28.6283C143.137 30.6621 151.392 32.474 151.392 40.9554C151.392 48.1936 143.137 54.0752 133.071 54.0752C122.44 54.0752 114.299 46.837 114.186 46.7237C113.619 46.1576 112.716 46.2708 112.15 46.837C111.583 47.4009 111.697 48.3068 112.263 48.8707C112.603 49.2104 121.31 56.9016 133.071 56.9016C144.946 56.9016 154.334 49.8899 154.334 40.9554C154.334 30.2114 144.154 27.8356 135.106 25.7996Z" fill="#4D1DA3"/>
<path d="M28.1658 0.352783C13.0482 0.352783 0.93042 12.9319 0.699219 28.6268C0.93042 44.0911 13.0482 56.6703 28.1658 56.9015C37.6281 56.9015 46.0521 51.5921 50.8989 44.0911C51.3614 43.399 51.1301 42.4755 50.5529 42.1294C49.7458 41.7833 48.9373 41.7833 48.4763 42.4755C44.2069 49.4006 36.7047 54.0163 28.1658 54.0163C14.5474 53.9015 3.58429 42.4755 3.58429 28.6268V28.2807L3.69916 25.5103C5.19989 12.9319 15.5856 3.35284 28.1658 3.35284C40.5132 3.35284 50.8989 12.9319 52.3997 25.5103H17.3561V25.5123C17.3496 25.5122 17.3435 25.5103 17.337 25.5103C16.572 25.5103 15.9518 26.1305 15.9518 26.8955C15.9518 27.6605 16.572 28.2807 17.337 28.2807C17.3436 28.2807 17.3497 28.2788 17.3563 28.2787V28.2807H53.9004C54.5926 28.2807 55.1699 27.5884 55.2847 26.8963V26.7799V26.5486V26.4338C54.2465 11.7773 42.5913 0.352783 28.1658 0.352783Z" fill="#4D1DA3"/>
<path d="M83.6487 0.352783C71.1849 0.352783 60.9141 10.5092 60.9141 23.2025V55.4007C60.9141 56.2094 61.6077 56.9016 62.4148 56.9016C63.3382 56.9016 63.7991 56.2094 63.7991 55.4007V23.2025C63.7991 12.0085 72.8005 3.23797 83.6487 3.23797C94.4969 3.23797 103.498 12.0085 103.498 23.2025V55.4007C103.498 56.2094 103.959 56.9016 104.883 56.9016C105.69 56.9016 106.383 56.2094 106.383 55.4007V23.2025C106.383 10.5092 96.1125 0.352783 83.6487 0.352783Z" fill="#4D1DA3"/>
<path d="M242.713 0.352783C230.249 0.352783 219.979 10.5092 219.979 23.2025V55.4007C219.979 56.2094 220.672 56.9016 221.479 56.9016C222.403 56.9016 222.864 56.2094 222.864 55.4007V23.2025C222.864 12.0085 231.865 3.23797 242.713 3.23797C253.561 3.23797 262.563 12.0085 262.563 23.2025V55.4007C262.563 56.2094 263.024 56.9016 263.947 56.9016C264.754 56.9016 265.448 56.2094 265.448 55.4007V23.2025C265.448 10.5092 255.177 0.352783 242.713 0.352783Z" fill="#4D1DA3"/>
<path d="M186.646 0.352783C171.875 0.352783 159.988 13.0468 159.988 28.6268C159.988 44.0911 171.875 56.9015 186.646 56.9015C201.418 56.9015 213.419 44.0911 213.419 28.6268C213.419 13.0468 201.418 0.352783 186.646 0.352783ZM186.646 54.0163C173.605 54.0163 162.873 42.5903 162.873 28.6268C162.873 14.5476 173.605 3.23797 186.646 3.23797C199.687 3.23797 210.534 14.5476 210.534 28.6268C210.534 42.5903 199.687 54.0163 186.646 54.0163Z" fill="#4D1DA3"/>
<path d="M298.189 0.352783C283.418 0.352783 271.531 13.0468 271.531 28.6268C271.531 44.0911 283.418 56.9015 298.189 56.9015C312.961 56.9015 324.962 44.0911 324.962 28.6268C324.962 13.0468 312.961 0.352783 298.189 0.352783ZM298.189 54.0163C285.148 54.0163 274.416 42.5903 274.416 28.6268C274.416 14.5476 285.148 3.23797 298.189 3.23797C311.23 3.23797 322.077 14.5476 322.077 28.6268C322.077 42.5903 311.23 54.0163 298.189 54.0163Z" fill="#4D1DA3"/>
<path d="M330.425 4.18878C330.425 4.72318 330.326 5.22211 330.129 5.68633C329.932 6.15054 329.663 6.55449 329.322 6.89817C328.982 7.24223 328.58 7.51267 328.115 7.70987C327.652 7.9067 327.152 8.00511 326.618 8.00511C326.064 8.00511 325.556 7.91013 325.095 7.71979C324.635 7.52945 324.239 7.26549 323.909 6.9283C323.578 6.59111 323.319 6.19059 323.132 5.72638C322.945 5.26216 322.852 4.75637 322.852 4.209C322.852 3.6746 322.95 3.17567 323.148 2.71146C323.344 2.24724 323.613 1.84482 323.954 1.50419C324.294 1.16356 324.696 0.895031 325.161 0.697823C325.625 0.500999 326.124 0.402588 326.658 0.402588C327.212 0.402588 327.72 0.497566 328.181 0.687904C328.642 0.878246 329.039 1.1422 329.373 1.4794C329.707 1.81659 329.965 2.21558 330.149 2.67636C330.332 3.13715 330.425 3.64141 330.425 4.18878ZM329.683 4.24905C329.683 3.76805 329.606 3.33092 329.453 2.93689C329.299 2.54286 329.087 2.20567 328.817 1.92492C328.547 1.64456 328.226 1.42905 327.855 1.27876C327.485 1.12885 327.086 1.05371 326.658 1.05371C326.198 1.05371 325.778 1.13725 325.401 1.30394C325.023 1.47101 324.702 1.69644 324.435 1.98023C324.168 2.26403 323.96 2.59283 323.814 2.96664C323.666 3.34084 323.593 3.73792 323.593 4.15865C323.593 4.63964 323.67 5.07716 323.823 5.47081C323.977 5.86522 324.189 6.20203 324.46 6.48278C324.73 6.76313 325.049 6.97865 325.416 7.12856C325.783 7.27884 326.184 7.35398 326.618 7.35398C327.086 7.35398 327.508 7.27083 327.885 7.10376C328.263 6.93669 328.585 6.71164 328.852 6.42746C329.119 6.14367 329.324 5.81487 329.468 5.44106C329.611 5.06686 329.683 4.66978 329.683 4.24905ZM328.401 6.12193C328.401 6.14863 328.398 6.17228 328.391 6.19212C328.384 6.21233 328.364 6.22721 328.331 6.23713C328.298 6.24743 328.249 6.25582 328.186 6.2623C328.122 6.26917 328.034 6.27222 327.92 6.27222C327.827 6.27222 327.749 6.26917 327.685 6.2623C327.621 6.25582 327.57 6.24399 327.53 6.22721C327.49 6.21042 327.458 6.18869 327.434 6.16198C327.411 6.13566 327.393 6.09866 327.379 6.05175L327.159 5.34074C327.072 5.07373 326.965 4.88682 326.838 4.77964C326.712 4.67321 326.521 4.61943 326.268 4.61943H325.987V6.10209C325.987 6.16198 325.963 6.20546 325.917 6.23217C325.87 6.25887 325.757 6.27222 325.577 6.27222C325.39 6.27222 325.269 6.25887 325.216 6.23217C325.162 6.20546 325.136 6.16198 325.136 6.10209V2.40592C325.136 2.2789 325.167 2.17706 325.231 2.10039C325.294 2.02372 325.393 1.98519 325.526 1.98519H326.598C326.879 1.98519 327.121 2.01189 327.324 2.06529C327.528 2.11869 327.697 2.19727 327.83 2.30064C327.964 2.4044 328.062 2.53104 328.125 2.68132C328.189 2.83161 328.221 3.00021 328.221 3.18711C328.221 3.51439 328.132 3.76653 327.955 3.94352C327.778 4.1205 327.543 4.24562 327.249 4.31886C327.41 4.37264 327.56 4.46418 327.7 4.59464C327.84 4.72471 327.964 4.92001 328.07 5.18053L328.331 5.8614C328.378 6.00177 328.401 6.08874 328.401 6.12193ZM327.289 3.28743C327.289 3.20733 327.278 3.13219 327.254 3.062C327.231 2.99182 327.189 2.93002 327.129 2.87662C327.069 2.82322 326.987 2.78126 326.883 2.75151C326.78 2.72137 326.648 2.7065 326.488 2.7065H325.987V3.92826H326.468C326.782 3.92826 326.997 3.8699 327.114 3.75317C327.231 3.63646 327.289 3.4812 327.289 3.28743Z" fill="#4D1DA3"/>
<path d="M186.185 66.3313H176.52C175.698 66.3313 175.102 66.9524 175.102 67.8079V94.7776C175.102 95.6331 175.698 96.2542 176.521 96.2542H186.185C194.018 96.2542 200.391 89.5422 200.391 81.2922C200.391 73.0432 194.018 66.3313 186.185 66.3313ZM177.996 69.2258H186.185C192.422 69.2258 197.496 74.6389 197.496 81.2922C197.496 87.9465 192.422 93.3596 186.185 93.3596H177.996V69.2258Z" fill="#4D1DA3"/>
<path d="M242.587 82.0471C242.482 81.4163 241.954 80.7463 241.179 80.7463H225.763C224.981 80.7463 224.345 81.3831 224.345 82.1653C224.345 82.9465 224.981 83.5833 225.771 83.5833C225.891 83.5833 227.32 83.5842 227.683 83.5823L239.585 83.5833C238.542 89.178 233.787 93.302 228.217 93.302C222.315 93.302 217.325 88.7776 216.613 82.8333L216.557 81.467V81.2932C216.557 74.6926 221.79 69.2795 228.217 69.2258C232.127 69.2258 235.722 71.2708 237.848 74.717C238.252 75.3225 238.989 75.4934 239.864 75.1096C240.17 74.926 240.394 74.6077 240.477 74.2376C240.563 73.8469 240.486 73.4338 240.272 73.1135C237.569 68.9299 232.95 66.3313 228.206 66.3313C220.174 66.4543 213.786 73.0217 213.662 81.304C213.786 89.6868 220.179 96.2542 228.217 96.2542C235.856 96.2542 242.037 90.3186 242.595 82.4485L242.597 82.3655L242.587 82.0471Z" fill="#4D1DA3"/>
<path d="M275.45 66.3313H257.92C257.12 66.3313 256.443 67.0081 256.443 67.8079C256.443 68.6292 257.064 69.2258 257.92 69.2258H265.268V94.7776C265.268 95.6331 265.864 96.2542 266.686 96.2542C267.485 96.2542 268.162 95.5774 268.162 94.7776V69.2258H275.45C276.306 69.2258 276.927 68.6292 276.927 67.8079C276.927 67.0081 276.25 66.3313 275.45 66.3313Z" fill="#4D1DA3"/>
<path d="M323.485 93.3596H314.686V67.8079C314.686 67.0081 314.009 66.3313 313.209 66.3313C312.388 66.3313 311.791 66.9524 311.791 67.8079V94.7776C311.791 95.6331 312.388 96.2542 313.209 96.2542H323.485C324.341 96.2542 324.962 95.6575 324.962 94.8362C324.962 94.0364 324.285 93.3596 323.485 93.3596Z" fill="#4D1DA3"/>
<path d="M205.297 86.4415V94.7533C205.297 95.5619 205.991 96.2541 206.798 96.2541C207.721 96.2541 208.182 95.5619 208.182 94.7533V86.4415" fill="#4D1DA3"/>
<path d="M205.297 86.4416V67.8322C205.297 67.0235 205.991 66.3313 206.798 66.3313C207.721 66.3313 208.182 67.0235 208.182 67.8322V86.4416" fill="#4D1DA3"/>
<path d="M247.766 86.4415V94.7533C247.766 95.5619 248.459 96.2541 249.266 96.2541C250.19 96.2541 250.651 95.5619 250.651 94.7533V86.4415" fill="#4D1DA3"/>
<path d="M247.766 86.4416V67.8322C247.766 67.0235 248.459 66.3313 249.266 66.3313C250.19 66.3313 250.651 67.0235 250.651 67.8322V86.4416" fill="#4D1DA3"/>
<path d="M302.182 96.2541L290.57 76.2065L278.958 96.2541H273.131L290.57 66.1464L308.009 96.2541H302.182Z" fill="#4D1DA3"/>
<path d="M296.427 96.2542L290.569 86.1401L284.711 96.2542H296.427Z" fill="#4D1DA3"/>
</svg>
